<?xml version="1.0" encoding="utf-8"?>
<!-- Generator: Adobe Illustrator 19.2.1, SVG Export Plug-In . SVG Version: 6.00 Build 0)  -->
<svg version="1.1" id="Ebene_1" xmlns="http://www.w3.org/2000/svg" xmlns:xlink="http://www.w3.org/1999/xlink" x="0px" y="0px"
	 viewBox="0 0 142 121.5" style="enable-background:new 0 0 142 121.5;" xml:space="preserve">
<style type="text/css">
	.st0{fill:#00A6E2;}
	.st1{fill:#FFFFFF;}
	.st2{fill-rule:evenodd;clip-rule:evenodd;fill:#FFFFFF;}
	.st3{fill-rule:evenodd;clip-rule:evenodd;fill:#00A6E2;}
</style>
<g>
	<path class="st0" d="M120.3,57.3v-6.1h4.6c0.8,0,1.5,0.1,2,0.3c0.6,0.2,1,0.6,1.3,1c0.3,0.4,0.5,1,0.5,1.7v0.1c0,0.9-0.3,1.7-1,2.2
		c-0.7,0.5-1.6,0.8-2.8,0.8H120.3z M113.2,70.5h7v-7.7h3.1l5.1,7.7h8.1l-6-8.8c1.1-0.4,2-1,2.8-1.8c0.8-0.7,1.4-1.6,1.8-2.6
		c0.4-1,0.6-2.1,0.7-3.4v-0.1c0-1.2-0.2-2.4-0.6-3.3c-0.4-1-0.9-1.8-1.7-2.6c-0.8-0.9-2-1.6-3.3-2c-1.4-0.5-3-0.7-4.9-0.7h-12V70.5z
		 M89.1,70.5h20.6v-6H96v-4h12.2V55H96v-3.8h13.4v-6H89.1V70.5z M68.4,64.3V51.4h2.9c1.4,0,2.6,0.3,3.7,0.8c1,0.5,1.9,1.2,2.4,2.2
		c0.6,1,0.9,2.1,0.9,3.5v0.1c0,1.4-0.3,2.5-0.9,3.5c-0.6,1-1.4,1.7-2.4,2.2c-1,0.5-2.3,0.7-3.7,0.8H68.4z M61.4,70.5H71
		c2.3,0,4.3-0.3,6.1-1c1.8-0.6,3.3-1.5,4.5-2.7c1.2-1.1,2.2-2.5,2.8-4c0.6-1.5,1-3.2,1-5.1v-0.1c0-1.8-0.3-3.5-1-5
		c-0.6-1.5-1.6-2.8-2.8-4c-1.2-1.1-2.7-2-4.5-2.6c-1.8-0.6-3.8-0.9-6.1-0.9h-9.8V70.5z M32.9,70.5h7V56.6l10.8,13.9h6.2V45.1h-7
		v13.4L39.5,45.1h-6.6V70.5z M16.9,71c1.8,0,3.4-0.2,4.9-0.7c1.5-0.5,2.7-1.2,3.7-2.1c1-1,1.8-2.2,2.4-3.7c0.6-1.5,0.8-3.2,0.8-5.3
		V45.1h-7.1v14.3c0,1.2-0.2,2.2-0.6,2.9c-0.4,0.8-0.9,1.3-1.6,1.7c-0.7,0.4-1.5,0.6-2.5,0.6s-1.8-0.2-2.5-0.6
		c-0.7-0.4-1.2-1-1.6-1.8c-0.4-0.8-0.6-1.8-0.6-3V45.1H5.1v14.2c0,2,0.3,3.7,0.8,5.2c0.5,1.5,1.3,2.7,2.3,3.6c1,0.9,2.3,1.7,3.7,2.1
		C13.4,70.7,15.1,71,16.9,71z"/>
	<path class="st1" d="M119.4,93.6V81.9h2.6c1.3,0,2.4,0.2,3.3,0.7c0.9,0.5,1.7,1.1,2.2,2c0.5,0.9,0.8,1.9,0.8,3.2v0.1
		c0,1.2-0.3,2.3-0.8,3.2c-0.5,0.9-1.3,1.5-2.2,2c-0.9,0.5-2.1,0.7-3.3,0.7H119.4z M113,99.3h8.8c2.1,0,3.9-0.3,5.6-0.9
		c1.6-0.6,3-1.4,4.1-2.4c1.1-1,2-2.3,2.6-3.7c0.6-1.4,0.9-2.9,0.9-4.6v-0.1c0-1.7-0.3-3.2-0.9-4.6c-0.6-1.4-1.4-2.6-2.5-3.6
		c-1.1-1-2.5-1.8-4.1-2.4c-1.6-0.6-3.4-0.8-5.5-0.8H113V99.3z M92.7,99.3h17.6v-5.6H99.1V76.2h-6.4V99.3z M75.4,87.3v-5.5h4.2
		c0.7,0,1.3,0.1,1.8,0.3c0.5,0.2,0.9,0.5,1.2,0.9c0.3,0.4,0.4,0.9,0.4,1.5v0.1c0,0.9-0.3,1.5-0.9,2c-0.6,0.5-1.4,0.7-2.5,0.7H75.4z
		 M69,99.3h6.4v-7h2.8l4.6,7h7.4l-5.5-8c1-0.4,1.8-0.9,2.5-1.6c0.7-0.7,1.3-1.4,1.6-2.4c0.4-0.9,0.6-2,0.6-3.1v-0.1
		c0-1.1-0.2-2.2-0.5-3c-0.3-0.9-0.9-1.7-1.5-2.3c-0.8-0.8-1.8-1.4-3-1.8c-1.2-0.4-2.7-0.7-4.5-0.7H69V99.3z M53.3,94
		c-0.9,0-1.7-0.2-2.4-0.5c-0.7-0.3-1.3-0.8-1.9-1.4c-0.5-0.6-0.9-1.2-1.2-2c-0.3-0.7-0.4-1.5-0.4-2.4v-0.1c0-0.8,0.1-1.6,0.4-2.4
		c0.3-0.7,0.7-1.4,1.2-2c0.5-0.6,1.1-1,1.8-1.3c0.7-0.3,1.5-0.5,2.4-0.5c0.9,0,1.7,0.2,2.4,0.5c0.7,0.3,1.3,0.8,1.9,1.4
		c0.5,0.6,0.9,1.2,1.2,2c0.3,0.7,0.4,1.5,0.4,2.4v0.1c0,0.8-0.1,1.6-0.4,2.4c-0.3,0.7-0.7,1.4-1.2,2c-0.5,0.6-1.1,1-1.8,1.3
		C55,93.8,54.2,94,53.3,94z M53.3,99.7c1.4,0,2.8-0.2,4-0.6c1.3-0.4,2.4-1,3.4-1.7c1-0.7,1.9-1.6,2.7-2.6c0.7-1,1.3-2.1,1.7-3.3
		c0.4-1.2,0.6-2.5,0.6-3.8v-0.1c0-1.3-0.2-2.6-0.6-3.8c-0.4-1.2-1-2.3-1.7-3.3c-0.7-1-1.6-1.8-2.6-2.6c-1-0.7-2.2-1.3-3.4-1.7
		c-1.3-0.4-2.6-0.6-4-0.6c-1.4,0-2.8,0.2-4,0.6c-1.3,0.4-2.4,1-3.4,1.7c-1,0.7-1.9,1.6-2.7,2.6c-0.7,1-1.3,2.1-1.7,3.3
		c-0.4,1.2-0.6,2.5-0.6,3.8v0.1c0,1.3,0.2,2.6,0.6,3.8c0.4,1.2,1,2.3,1.7,3.3c0.7,1,1.6,1.8,2.6,2.6c1,0.7,2.2,1.3,3.4,1.7
		C50.5,99.5,51.8,99.7,53.3,99.7z M12.3,99.4h5.6l4.6-13.3l4.6,13.3h5.6l7.7-23.2h-6.6l-4,13.3l-4.4-13.4h-5.5l-4.4,13.4l-4-13.3
		H4.6L12.3,99.4z"/>
	<path class="st0" d="M126.2,105.9h2.2v11.2h5.7v2h-7.9V105.9z M110.5,105.8h2.1l4.9,13.3h-2.3l-1.1-3.1h-5.2l-1.1,3.1h-2.2
		L110.5,105.8z M113.4,114l-1.9-5.3l-1.9,5.3H113.4z M86.6,105.9H89l3.3,10l3.3-10h2.3l-4.6,13.3h-2L86.6,105.9z M75.5,105.9h2.2
		v13.3h-2.2V105.9z M60.8,107.9h-3.5v-2h9.2v2H63v11.2h-2.2V107.9z M44.7,119.3c-0.9,0-1.7-0.2-2.5-0.5c-0.8-0.3-1.6-0.8-2.3-1.5
		l1.3-1.6c0.5,0.4,1,0.8,1.6,1.1c0.6,0.3,1.2,0.5,1.9,0.5c0.6,0,1.2-0.2,1.5-0.5c0.4-0.3,0.6-0.7,0.6-1.2v0c0-0.2,0-0.4-0.1-0.6
		c-0.1-0.2-0.2-0.4-0.4-0.5c-0.2-0.2-0.4-0.3-0.8-0.5c-0.3-0.2-0.8-0.4-1.3-0.5c-0.6-0.2-1.2-0.5-1.7-0.7c-0.5-0.2-0.9-0.5-1.2-0.8
		c-0.3-0.3-0.6-0.7-0.7-1.1c-0.2-0.4-0.2-0.9-0.2-1.4v0c0-0.5,0.1-1,0.3-1.5c0.2-0.5,0.5-0.8,0.9-1.2c0.4-0.3,0.8-0.6,1.3-0.8
		c0.5-0.2,1.1-0.3,1.7-0.3c0.8,0,1.5,0.1,2.2,0.4c0.7,0.3,1.4,0.6,2,1.2l-1.3,1.7c-0.5-0.4-0.9-0.7-1.4-0.9c-0.5-0.2-1-0.4-1.5-0.4
		c-0.6,0-1.1,0.1-1.4,0.4c-0.3,0.3-0.5,0.7-0.5,1.1v0c0,0.2,0,0.4,0.1,0.6c0.1,0.2,0.2,0.4,0.4,0.5c0.2,0.2,0.5,0.3,0.8,0.5
		c0.4,0.2,0.8,0.4,1.4,0.6c0.6,0.2,1.2,0.5,1.6,0.7c0.4,0.3,0.8,0.5,1.1,0.8c0.3,0.3,0.5,0.7,0.7,1c0.1,0.4,0.2,0.8,0.2,1.3v0
		c0,0.6-0.1,1.1-0.3,1.6c-0.2,0.5-0.5,0.9-0.9,1.2c-0.4,0.3-0.8,0.6-1.4,0.8C45.9,119.2,45.4,119.3,44.7,119.3z M23.3,105.9h8.4v2
		h-6.2v3.6h5.5v2h-5.5v3.7h6.3v2h-8.5V105.9z M5.9,105.9h8.3v2H8.1v3.7h5.4v2H8.1v5.5H5.9V105.9z"/>
	<polygon class="st2" points="13.3,30.3 3.1,40.5 10.1,40.5 16.8,33.8 	"/>
	<polygon class="st3" points="26.7,40.5 19.1,32.9 11.5,40.5 	"/>
	<polygon class="st3" points="128.4,40.5 137.3,40.5 126.2,29.4 121.8,33.8 	"/>
	<polygon class="st2" points="120.3,33.8 113.9,40.3 113.7,40.5 114.2,40.5 127,40.5 	"/>
	<polygon class="st2" points="57.9,19.1 51.4,12.6 44.2,19.7 48.8,24.3 50.9,22.2 53,24.2 	"/>
	<polygon class="st2" points="37.5,14.5 19.9,32.1 28.2,40.5 32.7,40.5 48,25.1 	"/>
	<polygon class="st2" points="104.6,22 97.6,15 93.9,18.7 99.4,24.2 99.4,24.2 100.9,25.7 	"/>
	<polygon class="st3" points="67.7,40.5 50.9,23.7 34.1,40.5 	"/>
	<polygon class="st3" points="101.5,26.4 113.9,38.8 119.6,33.1 107.2,20.7 	"/>
	<polygon class="st3" points="76.1,2.4 53.6,24.9 69.2,40.5 83.2,40.5 98.7,25 	"/>
	<polygon class="st2" points="113.2,39.5 99.5,25.8 99.4,25.7 84.6,40.5 84.8,40.5 112.2,40.5 	"/>
</g>
</svg>
